<mxfile host="app.diagrams.net" agent="Mozilla/5.0 (Windows NT 10.0; Win64; x64) AppleWebKit/537.36 (KHTML, like Gecko) Chrome/140.0.0.0 Safari/537.36" version="28.0.6">
  <diagram name="Page-1" id="DfbCc2UmAkL4X3RudAJZ">
    <mxGraphModel dx="1281" dy="647" grid="1" gridSize="10" guides="1" tooltips="1" connect="1" arrows="1" fold="1" page="1" pageScale="1" pageWidth="850" pageHeight="1100" math="0" shadow="0">
      <root>
        <mxCell id="0" />
        <mxCell id="1" parent="0" />
        <mxCell id="2Tu7SNWu-j6GZI2gFJYH-3" style="edgeStyle=orthogonalEdgeStyle;rounded=0;orthogonalLoop=1;jettySize=auto;html=1;" edge="1" parent="1" source="2Tu7SNWu-j6GZI2gFJYH-1" target="2Tu7SNWu-j6GZI2gFJYH-2">
          <mxGeometry relative="1" as="geometry" />
        </mxCell>
        <mxCell id="2Tu7SNWu-j6GZI2gFJYH-1" value="start" style="ellipse;whiteSpace=wrap;html=1;aspect=fixed;" vertex="1" parent="1">
          <mxGeometry x="70" y="80" width="80" height="80" as="geometry" />
        </mxCell>
        <mxCell id="2Tu7SNWu-j6GZI2gFJYH-6" style="edgeStyle=orthogonalEdgeStyle;rounded=0;orthogonalLoop=1;jettySize=auto;html=1;entryX=0.5;entryY=0;entryDx=0;entryDy=0;" edge="1" parent="1" source="2Tu7SNWu-j6GZI2gFJYH-2" target="2Tu7SNWu-j6GZI2gFJYH-4">
          <mxGeometry relative="1" as="geometry" />
        </mxCell>
        <mxCell id="2Tu7SNWu-j6GZI2gFJYH-2" value="User uploads/completes recording" style="rounded=1;whiteSpace=wrap;html=1;" vertex="1" parent="1">
          <mxGeometry x="50" y="210" width="120" height="60" as="geometry" />
        </mxCell>
        <mxCell id="2Tu7SNWu-j6GZI2gFJYH-7" style="edgeStyle=orthogonalEdgeStyle;rounded=0;orthogonalLoop=1;jettySize=auto;html=1;entryX=0.5;entryY=0;entryDx=0;entryDy=0;" edge="1" parent="1" source="2Tu7SNWu-j6GZI2gFJYH-4" target="2Tu7SNWu-j6GZI2gFJYH-5">
          <mxGeometry relative="1" as="geometry" />
        </mxCell>
        <mxCell id="2Tu7SNWu-j6GZI2gFJYH-4" value="begin transcribing audio" style="rounded=1;whiteSpace=wrap;html=1;" vertex="1" parent="1">
          <mxGeometry x="50" y="330" width="120" height="60" as="geometry" />
        </mxCell>
        <mxCell id="2Tu7SNWu-j6GZI2gFJYH-12" value="" style="edgeStyle=orthogonalEdgeStyle;rounded=0;orthogonalLoop=1;jettySize=auto;html=1;" edge="1" parent="1" source="2Tu7SNWu-j6GZI2gFJYH-5" target="2Tu7SNWu-j6GZI2gFJYH-11">
          <mxGeometry relative="1" as="geometry" />
        </mxCell>
        <mxCell id="2Tu7SNWu-j6GZI2gFJYH-5" value="pass transcribed text to llm to beautify and extract theme, category, class, date, etc" style="rounded=1;whiteSpace=wrap;html=1;" vertex="1" parent="1">
          <mxGeometry x="50" y="460" width="120" height="80" as="geometry" />
        </mxCell>
        <mxCell id="2Tu7SNWu-j6GZI2gFJYH-14" value="" style="edgeStyle=orthogonalEdgeStyle;rounded=0;orthogonalLoop=1;jettySize=auto;html=1;" edge="1" parent="1" source="2Tu7SNWu-j6GZI2gFJYH-11" target="2Tu7SNWu-j6GZI2gFJYH-13">
          <mxGeometry relative="1" as="geometry" />
        </mxCell>
        <mxCell id="2Tu7SNWu-j6GZI2gFJYH-11" value="show form with populated fields to allow editing before saving" style="whiteSpace=wrap;html=1;rounded=1;" vertex="1" parent="1">
          <mxGeometry x="50" y="630" width="120" height="60" as="geometry" />
        </mxCell>
        <mxCell id="2Tu7SNWu-j6GZI2gFJYH-16" value="" style="edgeStyle=orthogonalEdgeStyle;rounded=0;orthogonalLoop=1;jettySize=auto;html=1;" edge="1" parent="1" source="2Tu7SNWu-j6GZI2gFJYH-13" target="2Tu7SNWu-j6GZI2gFJYH-15">
          <mxGeometry relative="1" as="geometry" />
        </mxCell>
        <mxCell id="2Tu7SNWu-j6GZI2gFJYH-13" value="create chunks and embed into vector store" style="whiteSpace=wrap;html=1;rounded=1;" vertex="1" parent="1">
          <mxGeometry x="250" y="630" width="120" height="60" as="geometry" />
        </mxCell>
        <mxCell id="2Tu7SNWu-j6GZI2gFJYH-15" value="add controls to filter and organize notes search" style="whiteSpace=wrap;html=1;rounded=1;" vertex="1" parent="1">
          <mxGeometry x="250" y="490" width="120" height="60" as="geometry" />
        </mxCell>
      </root>
    </mxGraphModel>
  </diagram>
</mxfile>
